HIERARCHY
ROOT Hips
{
	OFFSET 0.000000 0.000000 0.000000
	CHANNELS 6 Xposition Yposition Zposition Zrotation Yrotation Xrotation 
	JOINT Spine1
	{
		OFFSET -0.013727 5.003763 -0.053727
		CHANNELS 3 Zrotation Yrotation Xrotation
		JOINT Spine2
		{
			OFFSET -0.000000 7.125302 -0.029825
			CHANNELS 3 Zrotation Yrotation Xrotation
			JOINT Chest
			{
				OFFSET -0.000001 7.550065 -0.815971
				CHANNELS 3 Zrotation Yrotation Xrotation
				JOINT Neck1
				{
					OFFSET -0.181676 26.311296 -0.553349
					CHANNELS 3 Zrotation Yrotation Xrotation
					JOINT Neck2
					{
						OFFSET -0.000003 7.709399 2.302586
						CHANNELS 3 Zrotation Yrotation Xrotation
						JOINT Head
						{
							OFFSET -0.000005 6.128913 1.953708
							CHANNELS 3 Zrotation Yrotation Xrotation
							JOINT HeadEnd
							{
								OFFSET 0.003598 16.065403 -1.835380
								CHANNELS 3 Zrotation Yrotation Xrotation
								End Site
								{
									OFFSET 0.000000 0.000000 0.000000
								}
							}
							JOINT Jaw
							{
								OFFSET 0.002637 0.475592 3.094940
								CHANNELS 3 Zrotation Yrotation Xrotation
								End Site
								{
									OFFSET 0.000000 0.000000 0.000000
								}
							}
							JOINT LeftEye
							{
								OFFSET 3.206380 5.380208 7.586883
								CHANNELS 3 Zrotation Yrotation Xrotation
								End Site
								{
									OFFSET 0.000000 0.000000 0.000000
								}
							}
							JOINT RightEye
							{
								OFFSET -3.222440 5.361867 7.558233
								CHANNELS 3 Zrotation Yrotation Xrotation
								End Site
								{
									OFFSET 0.000000 0.000000 0.000000
								}
							}
						}
					}
				}
				JOINT LeftShoulder
				{
					OFFSET 1.621652 23.237164 5.113414
					CHANNELS 3 Zrotation Yrotation Xrotation
					JOINT LeftArm
					{
						OFFSET 14.919845 -0.000001 -5.502326
						CHANNELS 3 Zrotation Yrotation Xrotation
						JOINT LeftForeArm
						{
							OFFSET 28.739309 0.000003 -0.002588
							CHANNELS 3 Zrotation Yrotation Xrotation
							JOINT LeftHand
							{
								OFFSET 27.093979 -0.000003 0.002609
								CHANNELS 3 Zrotation Yrotation Xrotation
								JOINT LeftHandThumb1
								{
									OFFSET 2.276481 -1.392045 3.191413
									CHANNELS 3 Zrotation Yrotation Xrotation
									JOINT LeftHandThumb2
									{
										OFFSET 4.012841 -1.828126 1.641655
										CHANNELS 3 Zrotation Yrotation Xrotation
										JOINT LeftHandThumb3
										{
											OFFSET 2.798516 -0.000000 -0.000004
											CHANNELS 3 Zrotation Yrotation Xrotation
											JOINT LeftHandThumbEnd
											{
												OFFSET 3.180791 -0.000002 0.000003
												CHANNELS 3 Zrotation Yrotation Xrotation
												End Site
												{
													OFFSET 0.000000 0.000000 0.000000
												}
											}
										}
									}
								}
								JOINT LeftHandIndex1
								{
									OFFSET 3.247552 -0.531998 2.296169
									CHANNELS 3 Zrotation Yrotation Xrotation
									JOINT LeftHandIndex2
									{
										OFFSET 6.364579 0.012062 0.178599
										CHANNELS 3 Zrotation Yrotation Xrotation
										JOINT LeftHandIndex3
										{
											OFFSET 3.662366 0.000001 0.000000
											CHANNELS 3 Zrotation Yrotation Xrotation
											JOINT LeftHandIndex4
											{
												OFFSET 2.329243 0.000002 0.000004
												CHANNELS 3 Zrotation Yrotation Xrotation
												JOINT LeftHandIndexEnd
												{
													OFFSET 2.759619 -0.180537 -0.113022
													CHANNELS 3 Zrotation Yrotation Xrotation
													End Site
													{
														OFFSET 0.000000 0.000000 0.000000
													}
												}
											}
										}
									}
								}
								JOINT LeftHandMiddle1
								{
									OFFSET 3.163498 0.240981 1.000332
									CHANNELS 3 Zrotation Yrotation Xrotation
									JOINT LeftHandMiddle2
									{
										OFFSET 6.190778 -0.259276 -1.002548
										CHANNELS 3 Zrotation Yrotation Xrotation
										JOINT LeftHandMiddle3
										{
											OFFSET 4.356522 -0.000007 0.000000
											CHANNELS 3 Zrotation Yrotation Xrotation
											JOINT LeftHandMiddle4
											{
												OFFSET 2.996875 -0.000007 0.000001
												CHANNELS 3 Zrotation Yrotation Xrotation
												JOINT LeftHandMiddleEnd
												{
													OFFSET 2.304294 -0.294571 -0.031739
													CHANNELS 3 Zrotation Yrotation Xrotation
													End Site
													{
														OFFSET 0.000000 0.000000 0.000000
													}
												}
											}
										}
									}
								}
								JOINT LeftHandRing1
								{
									OFFSET 2.882641 -0.053650 -0.322544
									CHANNELS 3 Zrotation Yrotation Xrotation
									JOINT LeftHandRing2
									{
										OFFSET 5.854543 -0.486203 -1.373840
										CHANNELS 3 Zrotation Yrotation Xrotation
										JOINT LeftHandRing3
										{
											OFFSET 4.350581 0.000001 0.000004
											CHANNELS 3 Zrotation Yrotation Xrotation
											JOINT LeftHandRing4
											{
												OFFSET 2.651324 0.000007 0.000003
												CHANNELS 3 Zrotation Yrotation Xrotation
												JOINT LeftHandRingEnd
												{
													OFFSET 1.936111 0.077685 -0.000070
													CHANNELS 3 Zrotation Yrotation Xrotation
													End Site
													{
														OFFSET 0.000000 0.000000 0.000000
													}
												}
											}
										}
									}
								}
								JOINT LeftHandPinky1
								{
									OFFSET 2.865499 -0.310004 -1.600378
									CHANNELS 3 Zrotation Yrotation Xrotation
									JOINT LeftHandPinky2
									{
										OFFSET 5.087853 -1.331142 -1.771231
										CHANNELS 3 Zrotation Yrotation Xrotation
										JOINT LeftHandPinky3
										{
											OFFSET 3.070975 0.000003 0.000000
											CHANNELS 3 Zrotation Yrotation Xrotation
											JOINT LeftHandPinky4
											{
												OFFSET 1.549667 0.000000 0.000001
												CHANNELS 3 Zrotation Yrotation Xrotation
												JOINT LeftHandPinkyEnd
												{
													OFFSET 1.944894 -0.157801 0.057219
													CHANNELS 3 Zrotation Yrotation Xrotation
													End Site
													{
														OFFSET 0.000000 0.000000 0.000000
													}
												}
											}
										}
									}
								}
							}
						}
					}
				}
				JOINT RightShoulder
				{
					OFFSET -1.380118 23.180305 5.214158
					CHANNELS 3 Zrotation Yrotation Xrotation
					JOINT RightArm
					{
						OFFSET -15.037197 0.000012 -5.545603
						CHANNELS 3 Zrotation Yrotation Xrotation
						JOINT RightForeArm
						{
							OFFSET -28.736639 0.000003 -0.002597
							CHANNELS 3 Zrotation Yrotation Xrotation
							JOINT RightHand
							{
								OFFSET -27.133617 -0.000000 0.002612
								CHANNELS 3 Zrotation Yrotation Xrotation
								JOINT RightHandThumb1
								{
									OFFSET -2.274036 -1.383990 3.163127
									CHANNELS 3 Zrotation Yrotation Xrotation
									JOINT RightHandThumb2
									{
										OFFSET -4.011429 -1.827468 1.640915
										CHANNELS 3 Zrotation Yrotation Xrotation
										JOINT RightHandThumb3
										{
											OFFSET -2.794935 -0.000003 -0.000003
											CHANNELS 3 Zrotation Yrotation Xrotation
											JOINT RightHandThumbEnd
											{
												OFFSET -3.183855 0.000003 0.000000
												CHANNELS 3 Zrotation Yrotation Xrotation
												End Site
												{
													OFFSET 0.000000 0.000000 0.000000
												}
											}
										}
									}
								}
								JOINT RightHandIndex1
								{
									OFFSET -3.253269 -0.520059 2.282866
									CHANNELS 3 Zrotation Yrotation Xrotation
									JOINT RightHandIndex2
									{
										OFFSET -6.341918 0.012473 0.178265
										CHANNELS 3 Zrotation Yrotation Xrotation
										JOINT RightHandIndex3
										{
											OFFSET -3.654875 -0.000008 -0.000001
											CHANNELS 3 Zrotation Yrotation Xrotation
											JOINT RightHandIndex4
											{
												OFFSET -2.327586 0.000000 -0.000000
												CHANNELS 3 Zrotation Yrotation Xrotation
												JOINT RightHandIndexEnd
												{
													OFFSET -2.761789 -0.180657 -0.113078
													CHANNELS 3 Zrotation Yrotation Xrotation
													End Site
													{
														OFFSET 0.000000 0.000000 0.000000
													}
												}
											}
										}
									}
								}
								JOINT RightHandMiddle1
								{
									OFFSET -3.168105 0.246593 1.001030
									CHANNELS 3 Zrotation Yrotation Xrotation
									JOINT RightHandMiddle2
									{
										OFFSET -6.180830 -0.258835 -1.000896
										CHANNELS 3 Zrotation Yrotation Xrotation
										JOINT RightHandMiddle3
										{
											OFFSET -4.348905 -0.000000 -0.000001
											CHANNELS 3 Zrotation Yrotation Xrotation
											JOINT RightHandMiddle4
											{
												OFFSET -3.000242 -0.000005 -0.000003
												CHANNELS 3 Zrotation Yrotation Xrotation
												JOINT RightHandMiddleEnd
												{
													OFFSET -2.302518 -0.294371 -0.031706
													CHANNELS 3 Zrotation Yrotation Xrotation
													End Site
													{
														OFFSET 0.000000 0.000000 0.000000
													}
												}
											}
										}
									}
								}
								JOINT RightHandRing1
								{
									OFFSET -2.885693 -0.067952 -0.308858
									CHANNELS 3 Zrotation Yrotation Xrotation
									JOINT RightHandRing2
									{
										OFFSET -5.854196 -0.486132 -1.373731
										CHANNELS 3 Zrotation Yrotation Xrotation
										JOINT RightHandRing3
										{
											OFFSET -4.338813 -0.000003 -0.000001
											CHANNELS 3 Zrotation Yrotation Xrotation
											JOINT RightHandRing4
											{
												OFFSET -2.654906 -0.000004 0.000004
												CHANNELS 3 Zrotation Yrotation Xrotation
												JOINT RightHandRingEnd
												{
													OFFSET -1.933571 0.077525 -0.000052
													CHANNELS 3 Zrotation Yrotation Xrotation
													End Site
													{
														OFFSET 0.000000 0.000000 0.000000
													}
												}
											}
										}
									}
								}
								JOINT RightHandPinky1
								{
									OFFSET -2.866430 -0.342798 -1.584144
									CHANNELS 3 Zrotation Yrotation Xrotation
									JOINT RightHandPinky2
									{
										OFFSET -5.091369 -1.332054 -1.772385
										CHANNELS 3 Zrotation Yrotation Xrotation
										JOINT RightHandPinky3
										{
											OFFSET -3.062666 -0.000007 0.000001
											CHANNELS 3 Zrotation Yrotation Xrotation
											JOINT RightHandPinky4
											{
												OFFSET -1.546528 0.000006 -0.000002
												CHANNELS 3 Zrotation Yrotation Xrotation
												JOINT RightHandPinkyEnd
												{
													OFFSET -1.945122 -0.157722 0.057211
													CHANNELS 3 Zrotation Yrotation Xrotation
													End Site
													{
														OFFSET 0.000000 0.000000 0.000000
													}
												}
											}
										}
									}
								}
							}
						}
					}
				}
			}
		}
	}
	JOINT LeftLeg
	{
		OFFSET 10.043214 -8.434526 2.595655
		CHANNELS 3 Zrotation Yrotation Xrotation
		JOINT LeftShin
		{
			OFFSET -0.000001 -43.221752 -0.802913
			CHANNELS 3 Zrotation Yrotation Xrotation
			JOINT LeftFoot
			{
				OFFSET 0.000002 -42.155094 -3.481523
				CHANNELS 3 Zrotation Yrotation Xrotation
				JOINT LeftToeBase
				{
					OFFSET 0.000000 -5.059475 13.231529
					CHANNELS 3 Zrotation Yrotation Xrotation
					JOINT LeftToeEnd
					{
						OFFSET -0.009607 -1.647616 6.513017
						CHANNELS 3 Zrotation Yrotation Xrotation
						End Site
						{
							OFFSET 0.000000 0.000000 0.000000
						}
					}
				}
			}
		}
	}
	JOINT RightLeg
	{
		OFFSET -10.047277 -8.295259 2.620317
		CHANNELS 3 Zrotation Yrotation Xrotation
		JOINT RightShin
		{
			OFFSET 0.000001 -43.362209 -0.805556
			CHANNELS 3 Zrotation Yrotation Xrotation
			JOINT RightFoot
			{
				OFFSET 0.000002 -42.117393 -3.478399
				CHANNELS 3 Zrotation Yrotation Xrotation
				JOINT RightToeBase
				{
					OFFSET -0.000000 -5.079608 13.284196
					CHANNELS 3 Zrotation Yrotation Xrotation
					JOINT RightToeEnd
					{
						OFFSET 0.009532 -1.634383 6.460591
						CHANNELS 3 Zrotation Yrotation Xrotation
						End Site
						{
							OFFSET 0.000000 0.000000 0.000000
						}
					}
				}
			}
		}
	}
}
MOTION
Frames: 4
Frame Time: 0.033333
3.061784 97.687897 -5.180359 -2.402020 -0.838073 3.571150 -0.867105 0.011290 2.323788 -0.714734 -0.417758 -4.061507 -0.885115 -2.556716 18.667406 -9.180090 9.518166 23.492842 0.419157 5.969143 -3.984591 -6.268493 6.928863 -14.999884 0.000078 -0.000023 0.000006 -0.029516 0.051748 -0.034735 0.597533 -3.647009 -10.430762 -0.659057 3.737688 -10.442586 10.788441 -14.731316 8.568911 -69.682495 -25.311485 -15.418535 176.462006 -58.635281 -176.890411 1.488876 -9.138732 -11.337994 -5.882100 9.861277 0.702590 -10.936857 -0.360574 7.156197 0.000002 8.774813 -0.000002 -15.879916 18.174425 6.317163 -1.844030 2.498502 -2.507275 -10.163589 4.678939 4.621103 -20.975992 -0.000002 0.000003 -21.226255 2.451694 -3.593994 0.000000 -0.000006 -0.000001 -1.362681 2.240796 -0.746323 -21.334888 0.584906 3.008320 -13.821195 -0.000004 0.000002 -23.887131 -0.249078 -0.839480 -61.245224 2.415195 -1.371086 -0.294025 1.679687 0.833255 -14.218194 0.093215 1.300579 -34.211998 -0.287564 0.967170 -20.033175 0.964534 1.212841 0.000000 -0.000000 -0.000002 -3.440385 0.788231 0.501655 -15.928165 -3.167307 2.999703 -6.338818 -0.000001 0.000001 -18.123415 3.648177 -4.905660 -0.000006 0.000001 -0.000001 -11.887776 18.035366 6.651200 83.625893 36.993423 20.638491 -178.257431 56.113598 -179.232758 -8.688097 5.012164 8.702181 2.243540 -5.255029 -3.180156 14.282875 -0.826594 6.952495 -0.000002 -12.690587 0.000003 16.629068 -18.399632 2.678063 1.665665 -1.955920 -2.878297 4.727791 -4.170584 4.993919 11.020514 0.000002 -0.000001 12.109032 -3.735712 -2.866779 0.000001 0.000000 0.000000 1.291985 -1.928548 -1.498088 14.800113 0.567464 3.865602 14.242551 -1.341733 -6.660647 19.631939 0.143926 -0.648243 50.468079 -0.821301 -6.591623 0.353027 -1.511151 -0.031941 20.222769 3.684305 2.316629 18.787245 0.000005 -0.000000 10.751610 -0.479868 1.397905 -0.000000 0.000000 -0.000001 3.273804 0.305947 -0.580111 21.486792 11.830361 2.266130 8.162914 0.000002 0.000001 18.399054 -3.798981 -4.940567 0.000003 0.000001 0.000001 12.087871 11.835122 -24.334055 -0.177788 -0.691495 24.181623 -11.219861 -2.346844 1.787318 1.632563 -1.974148 -1.225017 0.000000 -0.000000 0.000002 -7.538645 -12.365972 -8.080149 -0.088786 0.233186 22.555956 14.318169 -9.664668 -10.425616 -1.408534 0.868813 -1.493283 -0.000000 -0.000000 -0.000001 
3.134026 97.518829 -4.986686 -1.829016 -0.463639 3.285575 -1.011820 -0.095550 1.733269 -0.646672 -0.525334 -4.246477 -1.044147 -2.558641 18.833075 -9.719435 9.930099 22.491758 0.016543 5.426823 -3.919206 -6.549043 6.615432 -14.933746 0.000076 -0.000020 0.000007 -0.013356 0.017368 0.000092 0.614002 -3.680949 -10.429572 -0.651082 3.709498 -10.420828 8.681436 -14.991327 8.795733 -66.010536 -25.550631 -15.365525 175.502625 -62.979382 -176.153458 1.692214 -9.574124 -10.971093 -5.882100 9.861278 0.702589 -10.936859 -0.360576 7.156197 0.000002 8.774812 0.000000 -16.126671 18.221552 6.248491 -1.844031 2.498504 -2.507277 -10.163589 4.678939 4.621104 -20.975992 -0.000004 0.000002 -21.226254 2.451692 -3.593993 -0.000000 -0.000006 0.000001 -1.362681 2.240794 -0.746323 -21.334890 0.584908 3.008319 -13.821195 -0.000003 0.000001 -23.887129 -0.249081 -0.839481 -61.637627 2.418022 -1.377464 -0.294024 1.679688 0.833255 -14.218192 0.093215 1.300579 -34.211998 -0.287565 0.967169 -20.033180 0.964534 1.212843 0.000000 0.000000 -0.000001 -3.440386 0.788232 0.501656 -15.928164 -3.167306 2.999701 -6.338818 -0.000001 0.000001 -18.123411 3.648176 -4.905661 -0.000006 -0.000000 -0.000003 -9.913879 17.891312 7.179507 82.166367 35.963696 19.811367 -177.923065 58.006798 -178.756165 -8.766651 5.420581 6.576988 2.243539 -5.255032 -3.180156 14.282877 -0.826591 6.952496 -0.000005 -12.690590 0.000001 16.335741 -18.334774 2.747182 1.665666 -1.955920 -2.878298 4.727790 -4.170584 4.993918 11.020511 0.000003 -0.000001 12.109031 -3.735706 -2.866779 0.000001 -0.000001 -0.000002 1.291981 -1.928547 -1.498088 14.800111 0.567469 3.865606 14.242553 -1.341733 -6.660649 19.631939 0.143927 -0.648241 50.180653 -0.876614 -6.494873 0.353031 -1.511150 -0.031941 20.222771 3.684305 2.316628 18.787245 0.000005 0.000001 10.751610 -0.479866 1.397903 0.000000 -0.000000 -0.000000 3.273806 0.305947 -0.580110 21.486790 11.830361 2.266131 8.162916 0.000001 -0.000001 18.399052 -3.798978 -4.940567 0.000003 0.000001 -0.000001 11.504264 11.431492 -24.165012 -0.223909 -0.628360 24.473103 -11.271070 -2.812037 1.271386 1.628866 -2.001022 -1.121276 0.000000 0.000000 0.000002 -8.343568 -12.345364 -7.890404 -0.002954 0.230674 23.328440 14.937980 -9.676371 -11.361934 -1.401312 0.889598 -1.586925 0.000000 -0.000001 -0.000001 
3.223971 97.431068 -4.419343 -0.868519 0.078403 2.129648 -1.088007 -0.174188 0.907380 -0.565983 -0.691762 -4.539121 -1.127416 -2.564026 18.965149 -10.583863 10.616676 21.076649 -0.417811 4.765749 -3.809986 -6.814625 6.290692 -14.779538 0.000078 -0.000024 0.000005 -0.038006 0.067136 0.060342 0.566125 -3.615501 -10.353727 -0.653917 3.741886 -10.367758 5.033506 -15.242839 9.231847 -60.551426 -26.016115 -15.844079 175.960861 -68.148697 -176.714050 2.931449 -8.650515 -10.335842 -5.882102 9.861278 0.702590 -10.936860 -0.360575 7.156199 0.000001 8.774812 -0.000001 -16.074179 18.207354 6.276386 -1.844030 2.498503 -2.507277 -10.163589 4.678940 4.621105 -20.975996 -0.000002 0.000003 -21.226254 2.451694 -3.593995 -0.000000 -0.000006 0.000000 -1.362681 2.240796 -0.746322 -21.334887 0.584908 3.008319 -13.821197 -0.000003 0.000000 -23.887131 -0.249079 -0.839480 -61.455032 2.564967 -1.324958 -0.294024 1.679689 0.833255 -14.218194 0.093214 1.300578 -34.211998 -0.287563 0.967171 -20.033180 0.964535 1.212842 0.000000 0.000000 0.000000 -3.440386 0.788231 0.501656 -15.928169 -3.167308 2.999704 -6.338817 0.000002 -0.000000 -18.123411 3.648176 -4.905662 -0.000006 -0.000000 -0.000003 -6.694488 17.854752 8.351250 79.904060 35.388138 18.280420 -177.874023 60.327923 -178.513031 -9.994885 5.769746 2.529772 2.243541 -5.255033 -3.180155 14.282878 -0.826593 6.952497 -0.000003 -12.690590 0.000000 15.944932 -18.102777 2.829093 1.665666 -1.955918 -2.878296 4.727795 -4.170582 4.993918 11.020513 0.000004 -0.000000 12.109033 -3.735711 -2.866779 0.000000 -0.000001 0.000000 1.291984 -1.928548 -1.498088 14.800114 0.567467 3.865604 14.242553 -1.341734 -6.660648 19.631941 0.143925 -0.648242 49.921398 -0.956340 -6.323250 0.353028 -1.511151 -0.031941 20.222771 3.684307 2.316627 18.787245 0.000008 -0.000001 10.751611 -0.479867 1.397905 -0.000000 -0.000001 0.000000 3.273804 0.305947 -0.580109 21.486792 11.830359 2.266129 8.162915 0.000003 0.000001 18.399052 -3.798979 -4.940569 0.000003 0.000000 -0.000001 10.627340 11.002782 -22.732746 -0.252392 -0.608478 24.575979 -11.486135 -3.670105 0.969942 1.638763 -1.957324 -0.914040 -0.000000 -0.000000 0.000002 -9.913040 -12.702540 -6.336799 0.088716 0.268780 23.986225 15.792845 -9.295153 -11.874842 -1.393743 0.982369 -1.370957 0.000000 0.000000 -0.000001 
3.355274 97.095299 -3.449990 0.395170 0.556913 -0.066682 -0.972929 -0.213234 -0.016113 -0.490570 -0.733274 -4.905083 -1.002224 -2.673101 18.625828 -11.763424 11.315372 18.894022 -0.667979 4.282353 -3.766694 -7.129577 6.288784 -14.596134 0.000077 -0.000021 0.000006 -0.053102 0.162089 0.100460 0.512196 -3.493939 -10.269636 -0.635624 3.822447 -10.244671 1.477522 -15.571698 9.476621 -55.539421 -26.625122 -16.469593 179.025726 -71.420929 -179.621948 4.841321 -7.157485 -11.307372 -5.882100 9.861279 0.702590 -10.936858 -0.360576 7.156198 0.000002 8.774814 -0.000000 -15.686257 18.122663 6.325424 -1.844031 2.498505 -2.507275 -10.163589 4.678940 4.621104 -20.975994 -0.000005 0.000004 -21.226250 2.451693 -3.593992 -0.000001 -0.000006 0.000001 -1.362681 2.240795 -0.746323 -21.334890 0.584908 3.008320 -13.821197 -0.000004 0.000002 -23.887123 -0.249077 -0.839481 -60.792812 2.764277 -1.324444 -0.294024 1.679687 0.833255 -14.218190 0.093214 1.300579 -34.211998 -0.287562 0.967172 -20.033176 0.964537 1.212843 -0.000000 0.000000 -0.000002 -3.440385 0.788231 0.501656 -15.928165 -3.167305 2.999704 -6.338816 0.000002 0.000001 -18.123415 3.648177 -4.905662 -0.000004 -0.000000 -0.000002 -3.924078 18.059265 9.068025 77.791985 34.840195 17.078138 -178.159393 61.177654 -178.653503 -12.305581 5.904955 -3.850962 2.243538 -5.255033 -3.180155 14.282873 -0.826591 6.952497 -0.000002 -12.690586 -0.000002 15.621019 -17.731878 3.073020 1.665665 -1.955919 -2.878297 4.727794 -4.170582 4.993918 11.020510 0.000003 0.000000 12.109028 -3.735710 -2.866779 -0.000002 -0.000001 -0.000001 1.291984 -1.928546 -1.498088 14.800111 0.567468 3.865605 14.242553 -1.341736 -6.660649 19.631939 0.143925 -0.648244 50.007217 -0.999013 -5.968585 0.353029 -1.511148 -0.031940 20.222769 3.684305 2.316628 18.787245 0.000005 0.000002 10.751610 -0.479866 1.397904 0.000000 -0.000001 0.000002 3.273805 0.305946 -0.580110 21.486788 11.830361 2.266131 8.162916 0.000003 -0.000002 18.399048 -3.798977 -4.940566 0.000002 0.000002 0.000000 9.606391 10.937834 -20.185047 -0.273900 -0.653624 25.385323 -11.720726 -4.843491 -0.266095 1.643988 -1.918896 -0.791751 -0.000000 0.000000 0.000002 -12.200883 -12.788301 -3.420296 0.172258 0.366301 24.825394 16.521074 -8.805984 -13.106674 -1.398333 1.075249 -1.173445 -0.000000 -0.000000 -0.000001 
